<svg xmlns="http://www.w3.org/2000/svg" width="32.801" height="30.479" viewBox="0 0 32.801 30.479"><defs><style>.a{fill:#343638;}</style></defs><path class="a" d="M30.756,30.479H2.046A1.937,1.937,0,0,1,0,28.678V3.381a1.938,1.938,0,0,1,2.046-1.8H7.168V1.026A1.1,1.1,0,0,1,8.335,0,1.1,1.1,0,0,1,9.5,1.026v.553H23.3V1.026a1.175,1.175,0,0,1,2.331,0v.553h5.125a1.937,1.937,0,0,1,2.045,1.8v25.3A1.937,1.937,0,0,1,30.756,30.479ZM2.329,11.528v16.9H30.47v-16.9Zm0-7.9V9.476H30.47V3.632H25.631V5.764a1.175,1.175,0,0,1-2.331,0V3.632H9.5V5.764A1.1,1.1,0,0,1,8.335,6.791,1.1,1.1,0,0,1,7.168,5.764V3.632Zm22.137,22.11H22.673a1.035,1.035,0,1,1,0-2.053h1.794a1.035,1.035,0,1,1,0,2.053Zm-7.17,0H15.5a1.035,1.035,0,1,1,0-2.053H17.3a1.035,1.035,0,1,1,0,2.053Zm-7.168,0H8.335a1.035,1.035,0,1,1,0-2.053h1.793a1.035,1.035,0,1,1,0,2.053ZM24.466,21H22.673a1.035,1.035,0,1,1,0-2.054h1.794a1.035,1.035,0,1,1,0,2.054ZM17.3,21H15.5a1.035,1.035,0,1,1,0-2.054H17.3A1.035,1.035,0,1,1,17.3,21Zm-7.168,0H8.335a1.035,1.035,0,1,1,0-2.054h1.793a1.035,1.035,0,1,1,0,2.054Zm14.339-4.739H22.673a1.035,1.035,0,1,1,0-2.053h1.794a1.035,1.035,0,1,1,0,2.053Zm-7.17,0H15.5a1.035,1.035,0,1,1,0-2.053H17.3a1.035,1.035,0,1,1,0,2.053Zm-7.168,0H8.335a1.035,1.035,0,1,1,0-2.053h1.793a1.035,1.035,0,1,1,0,2.053Z" transform="translate(0 0)"/></svg>