<svg xmlns="http://www.w3.org/2000/svg" width="80" height="80" viewBox="0 0 80 80">
  <g id="그룹_125119" data-name="그룹 125119" transform="translate(-4844 19)">
    <g id="그룹_125108" data-name="그룹 125108" transform="translate(108 24)">
      <circle id="타원_2" data-name="타원 2" cx="40" cy="40" r="40" transform="translate(4736 -43)" fill="#1c3775"/>
      <g id="그룹_125109" data-name="그룹 125109" transform="translate(-2.883 -0.378)">
        <path id="패스_47099" data-name="패스 47099" d="M123.742,20.813a9.354,9.354,0,0,0-4.051-5.725,1.147,1.147,0,0,0-1.466.37,1.343,1.343,0,0,0,.345,1.57,7.061,7.061,0,0,1,3.1,4.341,6.711,6.711,0,0,1-.689,4.986h-3.447a5.258,5.258,0,0,0-10.515,0H99.7a5.258,5.258,0,0,0-10.515,0H86.251a7.849,7.849,0,0,1,.345-8.5,7.534,7.534,0,0,1,5.86-3.047A1.133,1.133,0,0,0,93.49,13.8c0-.37.949-8.034,10.085-8.034,7.239,0,9.479,5.541,10.169,8.126h-8.791a6.984,6.984,0,0,0-.6-1.109,4.149,4.149,0,0,0-2.844-1.293.685.685,0,0,0-.69.646v.646H98.4a.648.648,0,0,0,0,1.293h2.412V15.92H98.4a.648.648,0,0,0,0,1.293h2.412v.461a.765.765,0,0,0,.862.831,4.94,4.94,0,0,0,1.638-.554,4.124,4.124,0,0,0,1.637-1.847h10.084a.912.912,0,0,0,.776-.37,1.64,1.64,0,0,0,.258-.923c0-.093-1.465-11.358-12.5-11.358C94.61,3.453,92.2,10.01,91.594,12.6a9.377,9.377,0,0,0-6.722,3.971A10.341,10.341,0,0,0,84.786,28.2a1.041,1.041,0,0,0,.862.462h3.792a5.161,5.161,0,0,0,10,0h7.842a5.161,5.161,0,0,0,10,0h4.395a1.169,1.169,0,0,0,.862-.462,2.058,2.058,0,0,1,.345-.461,10.167,10.167,0,0,0,.862-6.926m-29.3,9.419a3.425,3.425,0,1,1,3.189-3.416,3.3,3.3,0,0,1-3.189,3.416m17.841,0a3.425,3.425,0,1,1,3.189-3.416,3.359,3.359,0,0,1-3.189,3.416" transform="translate(4676.871 -18.919)" fill="#fff"/>
        <path id="패스_47100" data-name="패스 47100" d="M87.621,2.123A12.609,12.609,0,0,0,84.086,0V.646a15,15,0,0,0,.95,6.925A6.684,6.684,0,0,0,88.482,10.9,9.164,9.164,0,0,1,83.4,7.664a15.525,15.525,0,0,0-3.708,1.293c5.085,5.632,9.308,3.878,11.291,2.586h.087V11.45a5.192,5.192,0,0,0,.087-1.109,9.324,9.324,0,0,0-3.534-8.218" transform="translate(4676.191 -19.622)" fill="#fff"/>
      </g>
    </g>
    <g id="그룹_125115" data-name="그룹 125115" transform="translate(114 30.289)">
      <g id="타원_2-2" data-name="타원 2" transform="translate(4736 -43.289)" fill="none" stroke="#fff" stroke-width="1">
        <circle cx="34" cy="34" r="34" stroke="none"/>
        <circle cx="34" cy="34" r="33.5" fill="none"/>
      </g>
    </g>
  </g>
</svg>
