<svg xmlns="http://www.w3.org/2000/svg" xmlns:xlink="http://www.w3.org/1999/xlink" width="164" height="26" viewBox="0 0 164 26">
  <defs>
    <clipPath id="clip-path">
      <rect id="사각형_56974" data-name="사각형 56974" width="164" height="26" transform="translate(0 -0.49)" fill="none"/>
    </clipPath>
  </defs>
  <g id="ic_kepco_logo" transform="translate(0 0.491)">
    <g id="그룹_125104" data-name="그룹 125104" transform="translate(0 0)" clip-path="url(#clip-path)">
      <path id="패스_47085" data-name="패스 47085" d="M20.809,6.781a6.59,6.59,0,0,0-5.675,3.384V6.787h-5.5A6.561,6.561,0,0,0,4.1,9.916V6.794H0v14.28H4.1V17.95a6.559,6.559,0,0,0,5.529,3.129h5.506V17.7a6.576,6.576,0,0,0,5.675,3.384h7.27V17.217H21.091l.006.006a2.974,2.974,0,0,1-2.459-1.353h9.434V12H18.655A2.975,2.975,0,0,1,21.1,10.668l.464-.005h6.512V6.794H21.527ZM9.916,17.2l.005.006A3.171,3.171,0,0,1,6.869,13.93,3.177,3.177,0,0,1,9.921,10.65l.464-.005h4.488a7.57,7.57,0,0,0,0,6.554Z" transform="translate(0 -0.603)" fill="#004a98"/>
      <path id="패스_47086" data-name="패스 47086" d="M69.834,7l-.249-.067a12.747,12.747,0,0,0-3.131-.388,12.523,12.523,0,0,0-3.177.406L63.1,7a6.686,6.686,0,0,0-3.878,3V6.759H51.959a6.773,6.773,0,0,0-6.472,5.391A6.767,6.767,0,0,0,39.02,6.759H31.75v3.869h6.513l.463.006a3.173,3.173,0,0,1,3.053,3.28,3.205,3.205,0,0,1-3.053,3.269H31.75V26.09h4.1V21.052H39.02a6.774,6.774,0,0,0,6.472-5.4,6.775,6.775,0,0,0,6.472,5.4h7.27V17.819a6.707,6.707,0,0,0,3.879,3l.18.048a12.789,12.789,0,0,0,3.177.406,12.5,12.5,0,0,0,3.132-.395l.249-.067a7.073,7.073,0,0,0,4.94-6.894v-.012A7.1,7.1,0,0,0,69.834,7M58.884,17.177H52.242l.006.006a3.172,3.172,0,0,1-3.053-3.274,3.177,3.177,0,0,1,3.053-3.281l.463-.005h6.174a7.5,7.5,0,0,0-.746,3.274v.013a7.612,7.612,0,0,0,.746,3.268m11.973-3.256a3.26,3.26,0,0,1-2.239,3.159,3.157,3.157,0,0,1-.424.091,9.113,9.113,0,0,1-1.736.164,8.983,8.983,0,0,1-1.724-.164l-.447-.1a3.257,3.257,0,0,1-2.227-3.153v-.012a3.257,3.257,0,0,1,2.232-3.16,3.481,3.481,0,0,1,.425-.091,9.283,9.283,0,0,1,3.465,0l.441.1a3.256,3.256,0,0,1,2.228,3.153v.012Z" transform="translate(-2.823 -0.582)" fill="#004a98"/>
      <path id="패스_47087" data-name="패스 47087" d="M133.782,11.129a.09.09,0,0,1-.012-.036,7.353,7.353,0,0,0-1.306-2.225,6.573,6.573,0,0,0-4.952-2.329h-7.349V26.076h4.144V20.983h3.205a6.447,6.447,0,0,0,5.156-2.571,7.933,7.933,0,0,0,1.113-7.282m-6.569,5.949h-2.906V10.456h2.436l.469.006a3.205,3.205,0,0,1,3.087,3.311,3.246,3.246,0,0,1-3.087,3.3" transform="translate(-10.682 -0.581)" fill="#80bc00"/>
      <path id="패스_47088" data-name="패스 47088" d="M171.28,6.547a6.5,6.5,0,0,0-4.11,1.491,7.231,7.231,0,0,0-2.424,3.936,8.887,8.887,0,0,0,.469,5.2,7.452,7.452,0,0,0,1.266,1.916,6.646,6.646,0,0,0,3.912,2.086,6.107,6.107,0,0,0,.882.061h7.349v-7H174.61v3.086c-.277,0-3.041,0-3.03.006a3.429,3.429,0,0,1-3.087-3.553,3.2,3.2,0,0,1,3.087-3.311l.469-.005h6.58V6.547Z" transform="translate(-14.629 -0.582)" fill="#80bc00"/>
      <rect id="사각형_56972" data-name="사각형 56972" width="2.894" height="3.711" transform="translate(137.548 5.965)" fill="#80bc00"/>
      <rect id="사각형_56973" data-name="사각형 56973" width="2.889" height="3.711" transform="translate(144.733 5.965)" fill="#80bc00"/>
      <path id="패스_47089" data-name="패스 47089" d="M161.407,13.856V11.915h-3.641c0,1.425,0,2.014.005,2.014a3.09,3.09,0,1,1-6.173,0l-.005-.491V11.915h-3.646v2.329a7.394,7.394,0,0,0,.367,2.3,6.041,6.041,0,0,0,.311.77h-5.777l.006.006a3.2,3.2,0,0,1-3.087-3.311V6.555h-3.759v4.761c0,.969,0,1.94.005,2.728.005,3.742,2.669,6.962,6.151,7.174.129.005.26.012.39.012h6.8V18.561a6.994,6.994,0,0,0,1.537,1.522,5.865,5.865,0,0,0,2.454,1.055,8.057,8.057,0,0,0,2.951-.067,5.572,5.572,0,0,0,.87-.267q.221-.092.441-.2a6.765,6.765,0,0,0,1.8-1.322,6.992,6.992,0,0,0,1.295-1.855,7.294,7.294,0,0,0,.718-3.177Z" transform="translate(-12.091 -0.583)" fill="#80bc00"/>
      <path id="패스_47090" data-name="패스 47090" d="M113.838,16.584a7.02,7.02,0,0,0-3.075-4.366.76.76,0,0,0-1.08.31.879.879,0,0,0,.288,1.158,5.393,5.393,0,0,1,1.826,7.1h-2.69a3.969,3.969,0,0,0-7.937,0H95.635a3.969,3.969,0,0,0-7.937,0H85.466a6.048,6.048,0,0,1,.277-6.463,5.656,5.656,0,0,1,4.433-2.335.816.816,0,0,0,.785-.758c.028-.248.707-6.112,7.62-6.112a7.7,7.7,0,0,1,7.716,6.154H99.622a2.644,2.644,0,0,0-.43-.806,3.082,3.082,0,0,0-2.154-.97.494.494,0,0,0-.514.509v.473c-.617-.006-1.238-.006-1.855-.012a.471.471,0,0,0-.005.939c.617.006,1.238.006,1.854.013,0,.473-.005.952-.005,1.425-.621-.006-1.238-.006-1.854-.013a.471.471,0,0,0-.005.94c.616.006,1.238.006,1.854.012v.37a.631.631,0,0,0,.667.655,2.956,2.956,0,0,0,1.215-.413,2.8,2.8,0,0,0,1.238-1.43h7.654a.759.759,0,0,0,.593-.292.876.876,0,0,0,.192-.667c-.011-.085-1.136-8.592-9.48-8.592-6.8,0-8.614,4.99-9.055,6.9a7.318,7.318,0,0,0-5.066,3.008,7.888,7.888,0,0,0-.051,8.816.768.768,0,0,0,.628.333h2.849a3.9,3.9,0,0,0,7.553,0h5.912a3.9,3.9,0,0,0,7.553,0h3.2a.553.553,0,0,0,.1.006.784.784,0,0,0,.633-.333s.09-.128.231-.37a7.073,7.073,0,0,0,.764-5.191m-22.16,7.125a2.583,2.583,0,1,1,2.4-2.578,2.5,2.5,0,0,1-2.4,2.578m13.465,0a2.583,2.583,0,1,1,2.4-2.578,2.5,2.5,0,0,1-2.4,2.578" transform="translate(-7.386 -0.303)" fill="#80bc00"/>
      <path id="패스_47091" data-name="패스 47091" d="M85.71,1.625A10.246,10.246,0,0,0,83.059,0c-.011.164-.023.328-.028.491a11.89,11.89,0,0,0,.723,5.282,4.915,4.915,0,0,0,2.607,2.493,6.721,6.721,0,0,1-3.845-2.444,11.357,11.357,0,0,0-2.781.97c3.872,4.257,7.072,2.971,8.536,1.941.011-.012.028-.018.039-.03s.005-.031.005-.043c.035-.272.068-.594.085-.849a7.326,7.326,0,0,0-2.69-6.185" transform="translate(-7.088 0)" fill="#80bc00"/>
    </g>
  </g>
</svg>
